<?xml version="1.0" standalone="no"?>
<!DOCTYPE svg PUBLIC "-//W3C//DTD SVG 20010904//EN"
 "http://www.w3.org/TR/2001/REC-SVG-20010904/DTD/svg10.dtd">
<svg version="1.0" xmlns="http://www.w3.org/2000/svg"
 width="1280.000000pt" height="1184.000000pt" viewBox="0 0 1280.000000 1184.000000"
 preserveAspectRatio="xMidYMid meet">
<metadata>
Created by potrace 1.15, written by Peter Selinger 2001-2017
</metadata>
<g transform="translate(0.000000,1184.000000) scale(0.100000,-0.100000)"
fill="#000000" stroke="none">
<path d="M3945 11830 c-471 -73 -813 -421 -1026 -1040 -103 -298 -155 -602
-166 -965 -9 -316 14 -518 93 -823 24 -94 35 -226 20 -250 -4 -7 -79 -71 -167
-143 l-159 -131 5 -36 c8 -68 27 -433 22 -438 -3 -3 -74 30 -158 74 -256 130
-434 202 -714 287 -293 89 -765 183 -1061 211 l-71 6 -46 -63 c-69 -98 -144
-230 -218 -384 -100 -209 -228 -546 -276 -723 -29 -111 -27 -148 18 -242 61
-129 155 -248 389 -495 154 -161 238 -262 276 -328 24 -42 24 -45 24 -325 l0
-284 37 -66 c57 -103 138 -226 177 -269 62 -69 100 -206 162 -578 40 -245 74
-390 110 -483 115 -290 654 -878 1309 -1428 592 -496 1291 -1011 1835 -1351
506 -316 1032 -571 1440 -697 472 -145 904 -165 1132 -51 156 79 351 264 691
657 175 203 264 264 370 254 159 -16 260 -121 298 -311 19 -91 13 -298 -15
-511 -14 -110 -26 -239 -26 -286 0 -100 27 -216 67 -291 61 -113 203 -216 367
-266 164 -50 437 -72 637 -52 128 13 286 44 299 57 5 5 38 95 73 199 106 311
245 680 253 672 2 -2 22 -95 44 -207 22 -113 46 -222 52 -243 29 -95 169 -139
510 -158 269 -16 611 8 723 51 27 10 117 142 172 251 l38 77 115 -99 c63 -54
142 -114 174 -133 51 -30 66 -35 100 -30 97 15 179 82 230 189 14 30 55 150
91 267 36 117 88 263 115 324 63 139 65 175 14 275 -43 86 -145 254 -266 438
-130 197 -176 299 -170 374 3 32 54 18 177 -48 235 -128 382 -192 480 -208 57
-10 124 12 165 54 60 62 84 152 85 319 0 118 -3 141 -22 182 -13 28 -35 56
-55 68 -48 30 -147 23 -253 -18 l-80 -32 -165 164 c-186 185 -188 186 -314
166 -126 -20 -248 -72 -420 -178 -277 -171 -469 -367 -507 -515 -6 -27 -9 -78
-7 -118 11 -142 106 -283 328 -480 128 -113 310 -290 310 -300 0 -4 -51 15
-112 43 -102 45 -118 49 -169 45 -99 -9 -185 -71 -236 -172 -32 -62 -63 -209
-63 -297 l0 -68 -70 0 -69 0 -10 38 c-35 130 -39 286 -16 517 19 180 22 394 6
452 -31 115 -154 230 -311 292 -255 99 -441 92 -546 -21 -53 -57 -69 -89 -129
-257 -58 -162 -60 -165 -125 -231 -44 -45 -88 -78 -135 -101 -60 -29 -80 -34
-164 -37 -80 -3 -106 0 -153 17 -70 27 -127 86 -158 167 -22 54 -23 73 -22
233 l2 174 58 66 c156 176 242 337 290 542 27 113 46 316 38 407 -14 147 -89
346 -192 504 -26 40 -75 129 -109 198 -219 441 -387 696 -526 801 -99 75 -283
137 -564 189 -196 36 -277 60 -378 112 -173 90 -256 249 -297 573 -13 104 -13
420 0 560 35 370 138 871 305 1485 343 1260 393 1853 205 2396 -31 91 -106
246 -150 309 -133 193 -414 226 -658 77 -211 -128 -368 -353 -592 -847 -40
-88 -108 -232 -152 -320 -83 -166 -217 -381 -229 -368 -7 9 -47 174 -78 325
-24 116 -372 1372 -408 1473 -107 297 -336 583 -660 826 -252 188 -468 296
-695 345 -87 19 -309 27 -393 14z m390 -272 c520 -80 982 -585 1307 -1428 141
-367 239 -726 317 -1168 l27 -152 -115 -93 c-443 -353 -709 -792 -805 -1327
-43 -238 -70 -577 -82 -1007 -6 -255 -7 -262 -28 -267 -35 -10 -231 14 -419
50 -211 40 -289 46 -312 23 -15 -15 -13 -19 27 -53 99 -86 271 -182 386 -216
86 -26 196 -25 253 4 118 57 214 226 274 481 54 230 78 462 95 945 16 436 20
464 76 577 46 92 182 305 226 353 42 45 89 80 109 80 31 0 24 -51 -31 -210
-115 -331 -165 -615 -191 -1085 -25 -454 -2 -745 111 -1435 27 -162 54 -339
60 -393 l13 -97 -52 -81 c-28 -44 -51 -91 -51 -104 0 -19 -12 -30 -62 -54
-120 -58 -259 -81 -499 -81 -249 0 -410 40 -460 116 -80 120 -247 461 -289
589 -7 22 -82 195 -167 385 -420 938 -570 1294 -677 1607 -392 1151 -487 2127
-285 2938 56 227 154 482 240 629 234 396 548 544 1004 474z m3181 -1348 c55
-27 183 -142 139 -125 -42 16 -120 35 -148 35 -89 0 -194 -127 -370 -450 -328
-603 -338 -626 -369 -760 -107 -475 -139 -1012 -98 -1620 20 -292 50 -585 130
-1260 151 -1286 135 -1088 132 -1701 -3 -565 4 -704 38 -805 53 -153 178 -283
358 -373 55 -28 63 -35 58 -54 -43 -159 -108 -505 -121 -642 -13 -150 -59
-250 -153 -337 -68 -63 -129 -97 -232 -132 -139 -46 -246 -60 -480 -60 -349
-1 -625 40 -1224 179 -131 30 -244 55 -250 55 -6 -1 16 -12 49 -25 513 -204
550 -216 775 -254 209 -35 344 -45 600 -45 249 0 370 10 536 44 250 51 418
152 497 299 31 57 30 49 67 458 24 272 45 324 155 388 107 63 317 77 535 37
425 -79 640 -286 701 -675 17 -110 5 -396 -26 -642 -33 -251 -41 -413 -26
-484 6 -29 25 -87 41 -127 79 -197 201 -310 347 -322 60 -5 63 -4 93 28 40 42
143 181 255 340 173 248 318 407 427 470 95 54 186 36 282 -55 64 -61 109
-135 209 -338 105 -212 166 -304 255 -389 91 -86 145 -112 243 -116 121 -6
190 35 234 141 9 21 38 120 66 220 28 100 51 183 53 184 1 1 39 -13 85 -32
151 -60 256 -69 298 -22 28 31 33 58 22 135 -25 183 -131 363 -359 610 -58 63
-116 129 -129 149 l-25 34 82 163 81 163 103 43 c120 50 218 84 303 106 33 9
70 25 83 37 20 18 38 23 113 26 l89 3 158 -63 c86 -34 183 -75 214 -91 68 -33
95 -35 177 -9 34 10 61 18 61 16 0 -2 -16 -49 -35 -104 -45 -130 -84 -211
-100 -211 -8 0 -37 5 -67 12 -42 9 -65 23 -110 65 -103 97 -258 152 -424 153
-181 0 -250 -67 -243 -237 4 -72 8 -84 52 -160 26 -45 100 -155 163 -245 186
-263 244 -406 244 -600 0 -129 -20 -212 -78 -329 -43 -85 -54 -99 -116 -146
-95 -71 -195 -120 -208 -102 -5 8 -32 51 -60 96 -28 46 -58 85 -67 87 -9 3
-45 10 -81 16 -62 11 -65 11 -83 -12 -197 -248 -353 -362 -577 -424 -49 -14
-102 -18 -210 -18 -270 -1 -301 24 -420 334 -31 81 -69 168 -83 192 -50 85
-139 148 -210 148 -23 0 -54 -23 -128 -96 -67 -65 -96 -121 -169 -329 -154
-441 -195 -490 -415 -488 -196 1 -412 43 -516 99 -171 94 -250 245 -250 484 0
145 22 257 121 605 124 438 138 593 68 742 -60 127 -208 201 -404 204 -93 1
-121 -5 -194 -42 -155 -76 -380 -288 -693 -650 -231 -268 -370 -400 -545 -518
-91 -61 -235 -128 -326 -151 -169 -43 -412 -18 -696 72 -115 36 -629 380 -865
578 -63 53 -137 98 -350 209 -327 171 -854 437 -1025 516 -135 63 -172 85
-265 154 -238 178 -573 510 -1044 1036 -104 116 -210 220 -334 328 -236 205
-461 419 -515 490 -47 61 -78 156 -127 392 -22 109 -56 337 -51 342 2 2 29
-36 62 -85 143 -212 319 -392 634 -650 118 -97 239 -199 267 -226 29 -27 53
-46 53 -42 0 4 -24 37 -53 74 -208 261 -532 731 -719 1043 -133 222 -258 459
-258 490 0 6 159 -180 354 -413 l354 -423 737 -735 c771 -768 773 -769 436
-365 -314 377 -594 695 -972 1106 -316 343 -453 495 -604 674 -640 754 -1018
1378 -1110 1830 -40 195 -27 382 39 580 63 187 201 441 234 431 9 -3 139 -33
287 -66 827 -186 1624 -411 1645 -464 5 -12 18 -84 30 -161 108 -712 344
-1506 735 -2475 165 -409 456 -1102 461 -1097 1 1 -53 178 -121 392 -613 1943
-746 2392 -899 3025 -104 430 -104 433 -82 535 l13 60 12 -45 c34 -124 190
-575 261 -753 74 -189 228 -517 263 -562 9 -11 -6 39 -34 110 -119 311 -242
711 -293 955 -45 212 -59 343 -58 547 0 202 8 250 32 192 8 -18 13 -48 13 -68
-1 -31 104 -410 172 -621 103 -321 142 -440 203 -615 278 -798 621 -1575 982
-2225 110 -198 208 -329 338 -451 86 -80 232 -191 305 -231 41 -24 47 -25 47
-9 0 40 -263 363 -340 418 -22 15 -40 31 -40 36 0 12 144 8 294 -8 241 -26
480 -36 565 -26 143 18 247 84 292 184 32 72 31 188 -4 492 -171 1480 -117
2379 171 2859 40 67 189 243 198 234 1 -2 -13 -78 -32 -168 -100 -477 -138
-752 -137 -1015 1 -421 77 -931 307 -2070 208 -1028 472 -2421 502 -2643 3
-28 10 -52 14 -52 8 0 37 181 50 315 25 259 -3 650 -71 995 -25 128 -161 687
-229 940 -144 538 -281 1318 -334 1895 -41 445 -46 949 -12 1300 23 232 29
286 31 283 2 -2 10 -100 19 -218 36 -470 85 -827 168 -1235 39 -192 44 -204
53 -141 9 56 0 310 -20 606 -30 428 -11 776 66 1219 100 572 247 1061 397
1318 190 325 434 470 628 373z m129 -2010 c-15 -537 -62 -839 -256 -1630 -157
-639 -263 -1112 -285 -1262 -3 -27 -8 -48 -11 -48 -8 0 -67 43 -75 54 -4 6 -4
37 -1 71 7 77 -16 275 -72 612 -56 342 -67 448 -68 608 0 328 89 589 393 1150
181 334 338 668 357 755 15 71 24 -89 18 -310z m-242 -2930 c41 -113 90 -251
107 -307 l32 -102 -17 -56 c-38 -118 -287 -527 -339 -555 -26 -13 -29 -13 -39
5 -41 69 -14 408 63 781 46 224 103 455 110 447 4 -5 41 -100 83 -213z m704
-536 c248 -61 468 -257 652 -578 28 -49 50 -90 48 -91 -1 -1 -45 2 -97 7 -136
14 -398 -5 -447 -31 -7 -4 34 -12 92 -19 433 -52 697 -279 782 -672 14 -68 18
-129 18 -300 0 -231 -12 -312 -70 -515 -35 -120 -41 -129 -56 -86 -7 19 -36
82 -64 140 -135 274 -310 469 -512 570 -104 52 -189 70 -417 86 -307 23 -533
44 -594 56 l-53 11 6 41 c51 328 191 556 422 692 43 25 73 45 68 45 -6 0 -53
-12 -105 -26 -111 -30 -233 -85 -316 -142 -75 -51 -180 -160 -233 -241 -47
-74 -49 -69 -17 54 48 186 248 631 360 805 55 84 128 165 171 188 66 35 235
38 362 6z m2442 -2600 c164 -89 200 -303 126 -754 -14 -85 -28 -161 -30 -168
-7 -19 -73 61 -135 161 -60 97 -143 187 -235 255 -65 48 -185 111 -250 132
-78 25 -78 25 -47 74 48 77 145 196 196 239 28 23 75 55 106 70 49 25 63 27
135 24 66 -3 90 -8 134 -33z m-1461 -542 c37 -32 103 -85 147 -119 137 -104
160 -139 144 -213 -12 -55 -37 -101 -93 -178 -52 -70 -96 -102 -142 -102 -78
0 -136 148 -150 385 -6 99 9 285 23 285 2 0 34 -26 71 -58z"/>
<path d="M4751 10526 l-63 -63 89 -7 c210 -16 504 -66 533 -91 15 -13 111 -37
119 -30 5 6 -99 134 -163 203 l-49 52 -201 0 -202 0 -63 -64z"/>
<path d="M3530 10559 c-66 -10 -164 -53 -257 -115 -127 -84 -169 -149 -146
-227 7 -27 14 -33 42 -35 35 -4 91 14 91 29 0 4 10 11 23 15 40 12 316 152
365 185 26 18 59 43 75 57 27 26 36 65 16 77 -18 12 -161 21 -209 14z"/>
<path d="M4930 10345 c-8 -2 -68 -11 -133 -20 -65 -10 -115 -21 -110 -25 25
-22 396 -41 461 -24 32 9 24 35 -18 56 -32 16 -148 23 -200 13z"/>
<path d="M3623 10291 c-90 -15 -65 -37 55 -47 91 -7 266 -1 295 11 24 10 21
24 -9 35 -28 11 -275 11 -341 1z"/>
<path d="M4116 10141 c-4 -6 -9 -32 -12 -58 -4 -40 3 -72 45 -193 l51 -145 -6
105 c-3 58 -16 145 -29 193 -23 90 -37 118 -49 98z"/>
<path d="M4516 10058 c-36 -89 -47 -149 -47 -258 0 -82 28 -240 45 -258 2 -2
2 66 -1 152 -6 152 8 340 29 395 4 13 7 26 5 28 -3 2 -16 -25 -31 -59z"/>
<path d="M5326 9942 c-3 -97 -9 -229 -12 -292 -6 -131 2 -131 37 0 17 66 23
114 23 210 1 116 -16 244 -34 255 -4 2 -10 -75 -14 -173z"/>
<path d="M3346 9943 c-29 -124 -41 -257 -28 -323 8 -42 9 -39 21 70 6 63 19
168 27 234 8 65 13 121 10 123 -2 2 -16 -44 -30 -104z"/>
<path d="M4846 9909 c-3 -17 -6 -48 -6 -68 0 -20 -6 -43 -12 -50 -7 -7 -8 -11
-3 -9 6 1 41 -10 78 -26 74 -32 86 -29 87 24 0 14 3 41 6 61 l6 35 -71 32
c-39 18 -73 32 -75 32 -2 0 -6 -14 -10 -31z"/>
<path d="M3721 9847 c-13 -34 -23 -68 -24 -75 -2 -13 138 -94 147 -85 3 4 6
35 6 70 0 35 4 63 10 63 6 0 10 7 10 16 0 8 -4 12 -10 9 -5 -3 -29 7 -52 23
-24 16 -48 32 -54 35 -7 4 -20 -17 -33 -56z"/>
<path d="M4197 9675 c-4 -27 -10 -68 -12 -90 l-4 -40 15 40 c8 22 13 62 12 90
l-3 50 -8 -50z"/>
<path d="M5433 9552 c-51 -37 -117 -87 -148 -111 -52 -41 -60 -44 -143 -52
-125 -13 -281 5 -482 57 -19 5 -16 0 16 -23 22 -15 57 -46 77 -69 80 -90 195
-128 387 -129 116 0 145 3 208 24 168 55 249 203 189 343 l-12 26 -92 -66z"/>
<path d="M4134 9485 c-82 -85 -243 -116 -466 -90 -145 17 -208 19 -208 7 0 -5
45 -34 100 -67 55 -32 99 -60 97 -61 -2 -2 -62 9 -133 26 -239 54 -280 50
-278 -28 1 -56 27 -90 95 -125 71 -36 186 -57 314 -57 161 0 261 30 351 103
67 55 138 185 163 298 5 21 8 39 7 38 0 0 -19 -20 -42 -44z"/>
<path d="M4460 9082 c0 -42 -42 -179 -66 -215 -27 -42 -84 -72 -118 -63 -12 3
-47 41 -79 86 l-58 80 -41 -21 c-23 -12 -69 -31 -102 -44 -53 -20 -61 -27 -73
-61 -7 -21 -14 -62 -16 -92 -2 -46 1 -57 21 -73 13 -10 42 -23 63 -29 48 -13
218 -29 314 -30 39 0 75 -4 81 -8 5 -4 29 -43 53 -87 23 -44 46 -84 50 -88 4
-4 31 23 59 61 62 84 170 187 256 245 64 42 66 43 123 36 101 -13 131 -11 153
11 30 30 25 59 -25 157 -73 140 -55 132 -192 83 -65 -23 -136 -42 -158 -42
-48 0 -110 26 -184 76 -29 20 -55 36 -57 36 -2 0 -4 -8 -4 -18z"/>
<path d="M4680 8292 c-30 -46 -74 -101 -97 -123 l-43 -39 89 0 88 0 13 121 c7
66 11 121 9 123 -2 2 -29 -35 -59 -82z"/>
<path d="M3856 4008 c-9 -36 -7 -41 9 -28 16 13 21 50 6 50 -5 0 -11 -10 -15
-22z"/>
<path d="M4777 2287 c-3 -8 -1 -20 4 -28 6 -10 9 -7 9 14 0 29 -5 35 -13 14z"/>
<path d="M4833 2243 c-7 -2 -13 -9 -13 -14 0 -12 57 -12 65 1 3 6 2 10 -4 10
-5 0 -15 2 -23 4 -7 3 -19 2 -25 -1z"/>
</g>
</svg>
