<?xml version="1.0" standalone="no"?>
<!DOCTYPE svg PUBLIC "-//W3C//DTD SVG 20010904//EN"
 "http://www.w3.org/TR/2001/REC-SVG-20010904/DTD/svg10.dtd">
<svg version="1.0" xmlns="http://www.w3.org/2000/svg"
 width="1280.000000pt" height="1184.000000pt" viewBox="0 0 1280.000000 1184.000000"
 preserveAspectRatio="xMidYMid meet">
<metadata>
Created by potrace 1.15, written by Peter Selinger 2001-2017
</metadata>
<g transform="translate(0.000000,1184.000000) scale(0.100000,-0.100000)"
fill="#000000" stroke="none">
<path d="M3945 11830 c-412 -64 -725 -337 -940 -818 -122 -274 -192 -542 -237
-902 -8 -66 -13 -213 -12 -395 1 -325 6 -376 75 -653 39 -157 54 -282 36 -309
-4 -7 -79 -71 -167 -143 l-160 -132 5 -36 c8 -68 27 -433 22 -438 -2 -3 -78
33 -168 79 -476 245 -1022 401 -1688 484 l-143 18 -27 -32 c-94 -113 -252
-414 -356 -678 -114 -289 -178 -490 -179 -565 -2 -139 109 -306 424 -635 155
-162 249 -275 280 -336 19 -35 20 -60 20 -321 l0 -283 59 -103 c33 -56 81
-132 108 -168 26 -36 58 -79 71 -96 45 -62 92 -248 138 -542 31 -204 68 -370
105 -471 105 -288 648 -882 1329 -1454 567 -477 1289 -1008 1810 -1333 725
-451 1357 -721 1882 -805 169 -26 465 -24 570 5 98 27 167 60 254 125 100 74
357 334 527 534 212 248 299 311 410 299 184 -19 279 -138 308 -388 12 -110 6
-215 -32 -478 -21 -152 -24 -303 -8 -382 31 -151 132 -281 274 -355 170 -88
321 -117 610 -117 177 0 229 3 335 23 69 13 130 28 136 34 7 7 44 104 82 217
115 334 243 672 249 654 1 -5 23 -110 48 -234 26 -124 53 -235 60 -246 33 -52
148 -92 325 -115 145 -19 590 -16 721 5 181 28 186 31 247 119 30 43 73 115
96 161 l42 83 80 -70 c99 -87 199 -162 242 -183 69 -33 186 17 253 109 44 60
61 103 134 341 36 116 88 261 115 322 63 140 65 175 14 277 -48 95 -129 228
-254 417 -142 216 -188 316 -182 393 3 32 54 18 177 -48 216 -117 346 -177
431 -197 74 -19 88 -19 130 -8 70 20 115 70 145 161 21 64 24 93 24 209 0 118
-3 141 -22 182 -28 61 -71 88 -139 88 -52 0 -164 -29 -218 -57 l-29 -15 -168
168 -169 169 -77 -1 c-103 -1 -185 -24 -320 -89 -275 -134 -565 -372 -643
-530 -33 -64 -35 -76 -35 -165 0 -89 2 -100 36 -170 49 -103 127 -197 261
-315 132 -117 338 -315 338 -326 0 -3 -50 16 -112 43 -103 46 -117 50 -168 45
-101 -9 -186 -70 -236 -169 -33 -64 -64 -211 -64 -300 l0 -68 -69 0 -69 0 -11
33 c-31 96 -40 309 -21 477 53 464 25 590 -159 715 -167 113 -427 172 -571
129 -42 -12 -67 -29 -115 -77 -58 -59 -63 -68 -112 -207 -29 -80 -59 -162 -68
-183 -24 -59 -131 -159 -210 -198 -60 -29 -80 -34 -164 -37 -126 -5 -190 17
-254 88 -69 77 -82 131 -79 333 l2 167 70 82 c217 251 312 508 313 848 1 141
-2 163 -26 245 -33 107 -99 248 -162 346 -25 39 -80 138 -121 221 -247 494
-419 739 -573 818 -123 62 -267 105 -507 150 -278 52 -392 97 -489 195 -138
139 -196 364 -196 765 0 428 98 976 317 1774 277 1008 360 1596 289 2051 -42
272 -158 567 -273 696 -130 145 -392 165 -602 46 -212 -121 -386 -365 -603
-847 -119 -262 -151 -329 -206 -430 -68 -124 -174 -282 -182 -272 -8 9 -44
156 -74 303 -26 128 -372 1382 -412 1494 -82 229 -267 493 -469 671 -312 274
-604 439 -886 500 -87 19 -309 27 -393 14z m390 -271 c167 -28 356 -111 505
-223 173 -130 364 -353 510 -596 71 -118 206 -392 269 -549 69 -168 186 -533
235 -727 39 -156 92 -415 124 -602 l9 -53 -66 -50 c-406 -306 -690 -716 -810
-1170 -74 -279 -112 -639 -127 -1206 -6 -245 -8 -263 -26 -269 -30 -9 -230 15
-423 52 -211 41 -287 46 -310 23 -15 -15 -13 -19 27 -53 99 -86 271 -182 386
-216 87 -27 195 -25 255 4 182 89 306 445 346 991 6 77 15 277 21 445 16 439
17 450 79 573 111 222 270 427 333 427 31 0 22 -50 -46 -253 -133 -398 -181
-751 -180 -1342 0 -396 10 -501 99 -1040 70 -428 89 -560 82 -587 -4 -13 -27
-54 -52 -92 -25 -38 -45 -79 -45 -92 0 -44 -155 -103 -329 -125 -140 -17 -382
-12 -486 10 -142 29 -182 53 -232 136 -73 121 -201 384 -257 530 -29 77 -142
338 -251 580 -388 867 -515 1176 -638 1550 -240 730 -347 1330 -347 1940 0
374 38 665 125 971 189 659 477 984 910 1024 89 9 218 4 310 -11z m3172 -1344
c49 -22 153 -108 153 -125 0 -4 -27 1 -61 11 -111 35 -146 24 -230 -70 -78
-86 -151 -208 -377 -631 l-200 -375 -31 -140 c-75 -344 -106 -668 -105 -1105
0 -429 23 -737 109 -1465 193 -1620 170 -1353 167 -1989 -3 -569 3 -698 37
-801 44 -131 156 -257 315 -352 49 -29 92 -53 96 -55 5 -2 -7 -70 -26 -153
-45 -198 -71 -343 -88 -495 -22 -189 -53 -258 -156 -353 -219 -203 -681 -248
-1362 -133 -145 25 -320 62 -642 136 -98 22 -180 39 -182 38 -9 -10 559 -221
649 -242 255 -60 454 -80 782 -80 455 0 737 63 912 202 113 90 146 169 162
382 22 295 39 427 62 480 72 168 302 224 659 160 221 -40 355 -104 481 -230
70 -69 94 -101 127 -170 63 -131 83 -220 89 -397 6 -166 -3 -284 -48 -643 -32
-258 -31 -311 12 -440 74 -226 223 -370 381 -370 43 0 53 4 79 33 41 43 147
184 254 337 176 251 334 424 434 475 95 48 188 27 278 -63 65 -66 110 -139
208 -339 95 -195 161 -297 248 -384 85 -84 150 -113 257 -117 171 -6 205 41
310 430 l32 117 37 -15 c108 -47 179 -66 248 -68 66 -1 75 1 99 26 23 23 27
34 26 85 -3 202 -116 396 -421 726 -50 55 -91 105 -91 113 0 8 36 85 79 173
l80 158 103 43 c119 49 253 96 318 111 25 6 55 20 68 32 20 18 38 23 112 25
87 4 88 4 246 -59 88 -34 185 -75 216 -90 68 -34 105 -36 181 -10 32 11 57 19
57 17 0 -13 -67 -194 -91 -247 -35 -76 -38 -77 -117 -57 -34 8 -64 27 -107 66
-104 96 -255 152 -415 152 -181 0 -250 -60 -250 -217 0 -112 14 -136 287 -528
117 -168 173 -328 173 -494 0 -124 -23 -222 -80 -336 -40 -81 -52 -95 -115
-143 -66 -50 -191 -120 -199 -111 -4 5 -97 149 -111 173 -7 11 -36 22 -85 32
-41 8 -78 14 -81 14 -3 0 -34 -37 -70 -82 -161 -205 -381 -343 -602 -378 -87
-14 -276 -8 -342 11 -78 22 -149 128 -220 329 -20 58 -51 131 -67 162 -52 98
-144 168 -221 168 -23 0 -53 -23 -131 -98 -69 -67 -91 -110 -171 -342 -98
-283 -175 -424 -250 -456 -114 -47 -489 -8 -649 69 -166 80 -252 209 -275 412
-18 150 7 300 109 655 132 466 148 625 78 777 -63 135 -224 209 -433 201 -88
-4 -107 -8 -160 -35 -161 -82 -392 -298 -665 -618 -367 -431 -632 -636 -910
-706 -114 -29 -323 -23 -480 14 -223 53 -273 75 -474 205 -234 152 -420 284
-561 401 -90 74 -150 111 -330 207 -313 167 -850 439 -1055 535 -96 44 -200
99 -231 120 -235 160 -627 543 -1121 1096 -81 92 -197 207 -264 265 -304 261
-574 521 -608 586 -16 30 -73 249 -101 387 -17 85 -46 297 -41 303 2 2 14 -14
27 -35 45 -75 158 -220 246 -318 104 -115 247 -244 448 -405 77 -62 174 -143
215 -179 40 -36 70 -59 65 -51 -5 8 -73 101 -151 205 -270 363 -481 677 -663
989 -97 167 -207 383 -199 391 3 3 159 -178 346 -402 l341 -408 742 -740 c783
-781 780 -778 415 -340 -310 372 -602 704 -956 1085 -1053 1134 -1569 1890
-1697 2482 -27 125 -24 344 6 468 40 165 123 353 218 496 l34 52 67 -15 c481
-105 1052 -245 1362 -334 202 -58 501 -156 514 -169 4 -4 19 -77 32 -162 103
-665 312 -1403 623 -2201 150 -385 560 -1371 568 -1364 3 4 0 14 -72 242 -31
99 -92 294 -136 432 -43 139 -115 367 -158 506 -300 952 -389 1250 -505 1672
-107 389 -236 928 -236 983 0 14 5 54 12 89 l12 64 101 -308 c106 -321 196
-557 289 -759 61 -133 146 -297 152 -291 2 2 -17 57 -42 123 -197 517 -313
958 -345 1309 -11 122 -3 405 11 405 13 0 34 -62 33 -99 -2 -56 153 -582 299
-1016 300 -894 640 -1683 1036 -2405 152 -277 270 -425 465 -583 104 -85 240
-172 245 -158 12 36 -231 342 -341 429 -29 23 -34 31 -21 36 27 10 111 7 314
-13 495 -49 638 -35 758 73 77 70 108 202 83 359 -29 185 -89 831 -111 1197
-13 214 -13 699 0 871 33 436 123 788 258 1013 43 72 174 226 192 226 4 0 -6
-60 -21 -132 -111 -517 -157 -878 -145 -1138 21 -449 84 -840 351 -2180 230
-1157 465 -2405 465 -2473 0 -48 19 4 34 93 53 318 43 693 -29 1110 -29 162
-136 618 -227 960 -73 273 -94 362 -157 673 -215 1055 -279 1936 -195 2717 14
130 24 187 24 134 0 -40 31 -415 45 -554 30 -285 83 -623 137 -880 40 -191 44
-200 53 -125 9 68 2 266 -21 600 -34 490 1 930 117 1480 138 654 305 1067 517
1284 150 152 318 207 449 146z m138 -2005 c-14 -528 -64 -856 -246 -1600 -130
-528 -162 -663 -209 -875 -27 -121 -58 -272 -70 -335 -28 -154 -23 -145 -66
-116 l-37 25 -3 128 c-2 138 -16 247 -69 558 -77 448 -88 656 -46 865 49 247
128 443 332 821 209 388 355 690 390 809 l14 45 8 -50 c4 -27 5 -151 2 -275z
m-246 -2931 c104 -280 143 -406 135 -443 -16 -75 -131 -288 -264 -486 -59 -87
-101 -123 -121 -103 -47 47 -20 399 60 788 50 245 104 456 113 441 4 -7 39
-96 77 -197z m627 -530 c275 -38 510 -222 712 -558 34 -57 62 -109 62 -115 0
-9 -26 -9 -97 -3 -140 12 -392 -6 -441 -32 -7 -4 35 -13 93 -20 139 -16 258
-50 375 -108 175 -87 313 -251 375 -446 76 -237 74 -568 -4 -872 -16 -61 -36
-126 -44 -145 l-15 -35 -13 34 c-7 19 -36 82 -64 140 -166 336 -396 556 -650
621 -40 10 -135 23 -211 29 -77 6 -224 18 -329 26 -217 17 -357 34 -374 45
-17 10 10 156 49 275 64 191 200 362 365 458 44 26 75 47 70 47 -6 0 -53 -12
-105 -26 -111 -30 -233 -85 -316 -142 -71 -48 -188 -168 -234 -239 -18 -29
-35 -51 -37 -49 -10 10 45 193 98 322 180 441 338 710 453 771 57 31 162 39
282 22z m2484 -2598 c74 -28 112 -61 147 -128 71 -133 74 -311 12 -678 -11
-66 -22 -126 -24 -133 -7 -19 -73 61 -135 161 -113 181 -298 327 -498 392 -29
10 -54 21 -57 25 -7 12 111 174 175 239 126 132 251 171 380 122z m-1391 -583
c54 -46 123 -102 153 -124 78 -59 113 -107 111 -155 -2 -48 -41 -131 -97 -207
-135 -182 -235 -123 -282 166 -20 118 -11 402 12 402 3 0 49 -37 103 -82z"/>
<path d="M4751 10526 l-63 -64 93 -7 c201 -14 482 -62 524 -89 23 -15 115 -39
122 -32 6 6 -94 133 -161 204 l-49 52 -201 0 -202 0 -63 -64z"/>
<path d="M3430 10530 c-89 -35 -231 -130 -272 -181 -34 -42 -45 -100 -29 -143
11 -27 14 -28 63 -24 28 3 56 12 62 20 6 8 58 36 116 62 237 108 380 203 380
252 0 31 -45 44 -154 44 -77 -1 -103 -5 -166 -30z"/>
<path d="M4704 10041 c-72 -44 -112 -139 -98 -235 9 -72 43 -165 108 -298 68
-139 126 -222 186 -263 38 -26 51 -30 106 -29 45 1 78 9 111 25 44 22 49 29
65 81 29 97 47 253 54 468 6 170 4 207 -7 216 -15 12 -362 54 -445 54 -31 0
-61 -7 -80 -19z"/>
<path d="M3558 9900 c-36 -11 -147 -72 -219 -121 -238 -160 -197 -361 155
-766 79 -92 81 -93 126 -93 61 0 114 16 147 45 l28 23 0 274 c0 259 1 277 24
358 22 75 23 92 14 155 -5 39 -16 84 -24 101 l-14 29 -105 2 c-58 1 -117 -2
-132 -7z"/>
<path d="M4885 8740 c-77 -16 -194 -36 -260 -45 -330 -45 -589 -138 -724 -260
-31 -28 -86 -72 -122 -98 -37 -25 -69 -56 -72 -68 -7 -27 55 -89 202 -202 60
-45 186 -161 291 -267 159 -160 195 -191 255 -221 60 -30 78 -34 145 -33 83 0
129 16 190 64 49 39 104 122 134 202 34 91 80 311 116 558 17 118 40 252 50
298 17 80 17 83 0 92 -26 14 -46 12 -205 -20z m-5 -171 c0 -15 -6 -31 -12 -37
-7 -6 -74 -15 -148 -22 -202 -17 -309 -42 -649 -151 -85 -27 -156 -48 -158
-46 -6 7 69 53 158 98 162 81 406 157 654 202 l130 24 12 -21 c7 -12 12 -33
13 -47z m-103 -722 c-53 -113 -102 -167 -152 -167 -42 0 -143 52 -226 116
l-63 48 84 18 c47 9 155 37 240 60 115 33 156 41 158 31 2 -7 -16 -55 -41
-106z"/>
<path d="M4777 2287 c-3 -8 -1 -20 4 -28 6 -10 9 -7 9 14 0 29 -5 35 -13 14z"/>
</g>
</svg>
