<?xml version="1.0" standalone="no"?>
<!DOCTYPE svg PUBLIC "-//W3C//DTD SVG 20010904//EN"
 "http://www.w3.org/TR/2001/REC-SVG-20010904/DTD/svg10.dtd">
<svg version="1.0" xmlns="http://www.w3.org/2000/svg"
 width="1280.000000pt" height="888.000000pt" viewBox="0 0 1280.000000 888.000000"
 preserveAspectRatio="xMidYMid meet">
<metadata>
Created by potrace 1.15, written by Peter Selinger 2001-2017
</metadata>
<g transform="translate(0.000000,888.000000) scale(0.100000,-0.100000)"
fill="#000000" stroke="none">
<path d="M4900 8874 c-299 -37 -596 -173 -808 -370 -287 -266 -394 -559 -379
-1038 10 -321 54 -536 263 -1281 74 -266 75 -269 33 -294 -70 -43 -218 -33
-325 22 -137 70 -418 307 -929 782 -91 84 -128 111 -210 152 -199 100 -354
143 -516 143 -240 0 -409 -107 -550 -347 -65 -109 -110 -215 -200 -463 -353
-976 -442 -1201 -634 -1597 -164 -338 -336 -631 -540 -918 -124 -175 -124
-174 -50 -285 69 -104 177 -199 288 -254 109 -53 182 -73 314 -86 213 -20 516
37 733 136 41 19 119 46 172 59 53 13 120 36 150 51 86 43 216 185 362 394
201 287 272 367 368 410 86 39 148 20 228 -67 127 -138 195 -282 295 -620 138
-467 324 -897 509 -1176 120 -182 225 -308 415 -498 267 -265 454 -410 1103
-849 466 -315 517 -347 708 -443 962 -486 2172 -568 3485 -236 296 75 643 186
798 255 461 207 1004 520 1174 678 83 77 113 121 113 164 0 26 -7 34 -47 57
-139 78 -304 136 -718 250 -480 133 -568 172 -951 417 -151 98 -232 164 -384
317 -244 245 -428 521 -577 866 -49 111 -126 333 -159 451 -26 98 -27 101 -21
339 3 132 11 276 17 320 68 500 247 781 554 869 83 24 118 22 228 -13 195 -63
366 -164 742 -439 455 -334 572 -401 771 -444 77 -16 130 -19 370 -18 312 0
440 10 628 46 322 62 587 193 772 379 93 93 160 189 214 307 63 136 107 333
80 355 -8 6 -95 27 -194 47 -542 111 -970 251 -1283 419 -203 109 -359 313
-452 587 -59 176 -88 330 -135 715 -62 503 -90 632 -174 792 -124 237 -373
407 -687 470 -132 26 -395 23 -530 -5 -230 -49 -384 -118 -564 -252 -561 -419
-1065 -925 -1480 -1485 -124 -167 -306 -354 -408 -420 -175 -112 -315 -113
-405 -3 -49 60 -81 135 -117 278 -58 228 -76 375 -100 795 -27 466 -69 674
-185 910 -65 133 -128 217 -260 351 -210 213 -438 312 -740 319 -77 2 -156 1
-175 -1z m366 -89 c192 -40 349 -128 496 -277 167 -170 254 -306 317 -495 62
-185 84 -332 111 -764 24 -379 39 -500 86 -704 52 -225 82 -298 158 -382 199
-221 544 -58 902 424 221 299 423 533 699 809 268 268 493 464 774 673 138
103 214 144 346 189 139 47 445 98 445 74 0 -21 -26 -31 -64 -26 -70 10 -92
-45 -31 -76 17 -8 31 -15 32 -16 5 -1 -19 -79 -26 -87 -5 -4 -28 7 -53 26 -54
42 -68 47 -90 35 -32 -16 -21 -53 26 -91 24 -20 55 -42 70 -48 29 -14 32 -30
16 -122 -11 -72 -1 -107 34 -107 32 0 34 4 47 96 6 44 12 80 13 81 1 1 25 -5
53 -13 47 -14 51 -17 57 -53 8 -50 28 -68 61 -53 19 9 25 19 25 43 0 28 3 31
23 25 12 -3 27 -6 33 -6 6 0 14 -22 17 -49 12 -99 62 -159 97 -116 11 13 10
26 -5 75 -10 33 -16 62 -13 65 2 3 20 0 39 -5 70 -21 253 -60 279 -60 37 0 55
22 40 49 -6 12 -12 21 -13 21 -3 0 -275 69 -320 81 l-38 10 3 52 3 51 53 -3
c91 -5 154 30 131 72 -8 14 -25 17 -91 17 l-81 0 6 41 c3 22 8 43 11 46 10 10
158 -47 236 -90 110 -62 253 -207 307 -312 51 -102 77 -182 102 -320 29 -164
28 -161 61 -425 38 -309 55 -418 86 -552 95 -418 288 -705 569 -845 318 -159
713 -289 1195 -392 107 -24 196 -44 197 -45 2 -1 -35 -49 -81 -107 -90 -112
-255 -277 -348 -348 l-58 -43 -102 22 c-57 12 -122 24 -145 27 -39 5 -43 3
-49 -21 -4 -19 -1 -33 11 -46 19 -21 95 -50 131 -50 13 0 25 -4 28 -9 12 -19
-172 -122 -351 -196 l-92 -38 -88 22 c-120 30 -245 91 -399 195 -102 69 -135
86 -159 84 -41 -4 -57 -48 -29 -79 53 -60 284 -202 406 -251 l87 -35 -102 -32
c-265 -83 -534 -82 -764 1 -86 31 -273 149 -493 312 -347 256 -470 340 -615
417 -104 55 -242 111 -337 134 -63 16 -69 16 -150 -4 -452 -113 -671 -571
-656 -1371 l4 -205 43 -135 c224 -713 619 -1269 1129 -1590 57 -36 138 -87
180 -114 112 -72 319 -168 462 -215 69 -22 248 -74 398 -116 150 -42 312 -90
360 -106 121 -42 272 -115 272 -131 0 -27 -146 -151 -283 -242 -201 -132 -410
-249 -722 -402 -271 -133 -419 -191 -695 -274 -308 -92 -584 -157 -875 -204
-293 -48 -424 -62 -732 -77 -614 -31 -1242 59 -1762 253 -249 93 -522 227
-686 337 -404 272 -801 542 -890 606 -474 341 -779 639 -1010 990 -77 118
-145 235 -145 252 0 6 19 23 42 38 33 22 45 25 57 16 84 -61 114 -71 142 -45
18 16 19 26 13 101 -11 130 19 147 106 58 61 -62 90 -69 116 -30 15 23 15 32
0 114 -9 49 -16 95 -16 103 0 8 20 24 45 36 35 17 45 27 45 46 0 37 -25 52
-64 38 -43 -16 -41 -17 -43 19 -3 40 -19 59 -49 59 -31 0 -44 -27 -44 -93 0
-43 -4 -56 -17 -60 -10 -3 -29 -13 -43 -22 -25 -16 -27 -16 -64 9 -46 31 -47
31 -76 8 -22 -18 -22 -22 -12 -65 19 -73 15 -93 -19 -120 l-32 -25 -59 32 -59
31 -19 -23 c-24 -29 -14 -54 32 -78 l31 -16 -29 -23 -29 -23 -18 34 c-25 49
-184 444 -212 528 -13 39 -47 148 -75 241 -86 286 -124 384 -197 507 -59 99
-169 219 -226 247 -64 31 -137 28 -212 -8 -107 -51 -180 -129 -360 -386 -192
-274 -277 -369 -375 -420 -78 -40 -422 -105 -555 -105 l-44 0 56 53 c58 54
203 222 203 235 0 18 -33 52 -49 52 -11 0 -61 -48 -121 -114 -56 -63 -116
-124 -133 -136 -17 -13 -48 -39 -69 -58 -38 -34 -41 -35 -116 -33 -71 1 -241
22 -321 39 l-33 7 59 51 c70 62 92 96 73 119 -24 29 -54 15 -148 -65 l-92 -80
-66 25 c-99 37 -181 84 -215 122 l-30 35 46 61 c101 138 279 412 369 570 255
445 460 912 726 1657 257 717 309 832 442 975 116 125 232 171 413 163 94 -5
127 -11 231 -46 237 -79 269 -100 576 -383 475 -437 714 -626 849 -670 96 -31
245 -34 299 -5 89 47 112 101 81 193 -27 78 -171 610 -219 808 -116 470 -131
820 -51 1134 36 139 54 181 123 285 276 415 834 649 1312 551z m4589 -471 c8
-4 8 -17 1 -50 -12 -51 -3 -50 -130 -13 l-68 21 28 30 c28 29 31 29 93 23 36
-4 70 -9 76 -11z m-194 -135 l38 -12 -6 -51 c-3 -28 -7 -52 -8 -54 -4 -5 -70
9 -84 18 -11 6 -11 17 0 59 7 28 15 51 17 51 3 0 22 -5 43 -11z m153 -45 c12
-4 16 -20 16 -55 0 -48 -1 -49 -30 -49 -29 0 -30 1 -30 48 0 61 7 70 44 56z"/>
<path d="M5418 8569 c-24 -14 -23 -38 7 -111 14 -34 24 -62 22 -63 -1 -1 -30
-12 -65 -23 l-62 -21 -19 38 c-25 48 -45 64 -71 56 -35 -11 -42 -39 -21 -88
l19 -44 -51 -29 c-54 -31 -70 -61 -47 -90 18 -20 41 -18 92 11 l45 25 13 -32
c19 -47 40 -68 67 -68 37 0 50 39 29 91 -9 23 -15 43 -13 45 9 9 132 43 135
36 1 -4 19 -38 40 -77 42 -79 72 -94 107 -55 19 21 18 22 -13 86 -18 35 -32
69 -32 74 0 6 15 10 34 10 59 0 86 49 48 83 -15 14 -31 16 -78 11 l-59 -6 -35
73 c-36 76 -55 91 -92 68z"/>
<path d="M5214 7805 c-65 -45 -93 -245 -59 -432 40 -224 142 -420 233 -448
109 -33 168 166 127 422 -27 168 -83 316 -152 401 -54 67 -107 87 -149 57z"/>
<path d="M4445 7738 c-165 -144 -129 -618 61 -811 68 -70 136 -87 202 -53 143
74 171 442 52 691 -65 135 -144 205 -234 205 -37 0 -52 -6 -81 -32z"/>
<path d="M5140 6569 c-154 -27 -251 -127 -281 -291 -17 -92 4 -174 85 -337 82
-165 105 -200 156 -243 55 -48 114 -63 242 -63 122 0 148 11 182 80 26 53 33
258 16 489 -13 189 -28 241 -83 294 -67 64 -193 93 -317 71z"/>
<path d="M7410 3314 c-15 -17 -15 -16 46 -177 18 -46 18 -49 1 -58 -21 -12
-23 -52 -3 -68 8 -7 25 -9 38 -6 20 4 28 -4 66 -72 40 -73 41 -79 25 -90 -59
-41 -143 -118 -149 -135 -4 -14 1 -27 15 -41 25 -26 39 -19 131 58 36 30 67
55 70 55 12 0 181 -275 171 -278 -23 -8 -129 -92 -135 -108 -3 -8 -2 -24 4
-34 21 -39 38 -33 158 57 l30 23 49 -61 50 -60 -39 -38 c-42 -43 -45 -52 -23
-75 18 -18 48 -10 98 26 l30 21 62 -69 63 -69 -36 -20 c-46 -26 -60 -49 -46
-72 17 -28 42 -27 95 2 l49 27 93 -85 c132 -120 275 -237 305 -248 18 -7 31
-6 48 6 47 30 33 50 -139 194 -78 65 -157 134 -175 153 l-32 34 30 22 c33 25
38 43 14 62 -12 11 -24 11 -64 -2 l-48 -16 -66 67 c-36 37 -66 70 -66 74 0 4
25 23 55 43 56 38 69 66 43 92 -20 20 -47 14 -107 -27 l-58 -40 -30 32 c-51
55 -203 269 -287 406 -4 5 18 17 46 27 29 9 79 30 111 46 51 25 58 32 55 55
-6 50 -27 50 -147 4 -61 -24 -116 -41 -122 -39 -14 5 -98 140 -93 149 2 4 35
25 73 48 73 45 88 67 64 100 -20 30 -42 26 -112 -19 -34 -22 -63 -40 -65 -40
-2 0 -15 28 -30 63 -15 34 -32 73 -39 87 -15 30 -58 38 -77 14z"/>
</g>
</svg>
