<?xml version="1.0" standalone="no"?>
<!DOCTYPE svg PUBLIC "-//W3C//DTD SVG 20010904//EN"
 "http://www.w3.org/TR/2001/REC-SVG-20010904/DTD/svg10.dtd">
<svg version="1.0" xmlns="http://www.w3.org/2000/svg"
 width="1280.000000pt" height="1184.000000pt" viewBox="0 0 1280.000000 1184.000000"
 preserveAspectRatio="xMidYMid meet">
<metadata>
Created by potrace 1.15, written by Peter Selinger 2001-2017
</metadata>
<g transform="translate(0.000000,1184.000000) scale(0.100000,-0.100000)"
fill="#000000" stroke="none">
<path d="M3945 11830 c-162 -26 -334 -95 -464 -187 -366 -261 -631 -833 -713
-1533 -8 -71 -13 -221 -12 -395 1 -317 8 -378 74 -648 40 -161 55 -287 37
-314 -4 -7 -79 -71 -167 -143 l-160 -132 5 -36 c9 -70 27 -433 22 -438 -3 -3
-74 31 -159 74 -290 152 -592 263 -952 352 -272 67 -604 126 -822 146 l-72 7
-32 -44 c-159 -219 -323 -570 -467 -999 -71 -208 -74 -261 -25 -364 64 -136
159 -257 392 -501 155 -162 249 -275 280 -336 19 -35 20 -60 20 -320 l0 -282
36 -66 c51 -92 134 -218 177 -269 59 -70 107 -227 147 -482 71 -449 106 -573
207 -730 230 -354 688 -825 1303 -1339 699 -584 1508 -1156 2142 -1515 120
-67 424 -222 533 -271 332 -148 680 -258 957 -302 171 -27 465 -24 573 5 98
27 160 58 251 125 98 72 355 332 527 534 148 173 226 246 305 284 36 18 54 21
104 15 185 -19 280 -138 309 -388 12 -110 6 -215 -32 -478 -21 -152 -24 -303
-8 -382 31 -151 132 -281 274 -355 169 -87 320 -116 605 -117 172 -1 226 3
335 22 72 13 135 29 141 35 7 7 44 104 82 217 103 301 241 665 248 658 1 -2
23 -106 49 -233 25 -126 52 -240 60 -251 34 -52 152 -93 330 -115 152 -19 586
-16 716 5 184 29 186 30 251 125 32 46 74 119 95 161 l38 76 115 -96 c171
-144 205 -165 262 -163 95 3 189 76 242 187 13 28 54 148 90 266 37 118 89
265 116 326 68 150 67 175 -3 308 -30 56 -96 166 -147 246 -184 286 -213 334
-240 394 -26 57 -35 97 -32 139 4 39 83 10 284 -105 112 -64 253 -125 336
-144 133 -31 218 19 263 157 21 64 24 93 24 209 0 118 -3 141 -22 182 -28 61
-71 88 -139 88 -52 0 -164 -29 -218 -57 l-29 -15 -168 168 -169 169 -77 -1
c-103 -1 -185 -24 -321 -90 -273 -132 -564 -372 -642 -529 -33 -64 -35 -76
-35 -165 0 -89 2 -100 36 -170 49 -103 127 -197 261 -315 132 -117 338 -315
338 -326 0 -3 -50 16 -112 43 -103 46 -117 50 -168 45 -101 -9 -186 -70 -236
-169 -33 -64 -64 -211 -64 -300 l0 -68 -69 0 -69 0 -11 33 c-30 91 -40 319
-21 472 56 454 25 595 -159 720 -167 113 -427 172 -571 129 -42 -12 -67 -29
-115 -77 -60 -61 -62 -65 -125 -242 l-64 -179 -66 -67 c-43 -43 -90 -78 -135
-100 -60 -29 -80 -34 -164 -37 -126 -5 -190 17 -254 88 -69 77 -82 131 -79
333 l2 167 70 82 c219 253 314 511 314 853 0 134 -3 159 -28 240 -32 107 -98
248 -161 346 -25 39 -80 138 -121 221 -136 273 -287 533 -361 623 -54 66 -150
158 -188 181 -113 66 -276 116 -531 164 -278 52 -392 97 -489 195 -138 139
-196 364 -196 765 0 424 92 940 311 1750 190 706 266 1068 305 1454 44 436
-13 821 -167 1130 -59 119 -95 172 -144 216 -134 117 -381 127 -564 23 -221
-126 -392 -363 -613 -853 -120 -265 -141 -309 -201 -420 -71 -130 -178 -292
-187 -282 -8 8 -62 234 -80 332 -13 71 -353 1305 -396 1435 -75 231 -250 492
-456 679 -308 280 -619 459 -909 522 -87 19 -309 27 -393 14z m390 -271 c765
-125 1374 -1125 1643 -2697 l9 -52 -85 -67 c-47 -37 -119 -97 -161 -134 l-74
-68 -33 46 c-36 51 -133 135 -146 127 -4 -3 -16 9 -26 27 -45 83 -101 137
-179 174 -142 67 -183 116 -183 215 0 66 -15 80 -122 113 -114 36 -168 79
-231 185 -59 100 -116 151 -212 191 -116 49 -195 63 -321 59 -98 -3 -115 -6
-147 -28 -46 -31 -79 -98 -85 -173 -4 -48 1 -71 28 -139 29 -72 32 -88 27
-146 -10 -98 -42 -156 -129 -235 -67 -60 -77 -73 -92 -125 -9 -32 -16 -83 -16
-113 0 -45 -9 -72 -55 -166 -93 -189 -127 -282 -133 -353 l-4 -65 45 -42 c78
-72 130 -71 177 6 30 48 31 48 91 54 47 4 67 11 84 29 12 13 54 101 94 197 67
161 77 178 130 230 56 56 101 132 101 171 0 11 13 47 29 78 25 50 35 60 69 70
22 7 51 12 65 12 14 0 38 11 54 23 15 13 52 40 81 61 50 35 55 36 93 26 42
-12 49 -20 129 -160 73 -129 126 -170 222 -170 46 0 60 -6 110 -43 39 -28 69
-62 94 -105 21 -35 51 -75 68 -89 36 -30 143 -83 169 -83 9 0 17 -2 17 -5 0
-3 -21 -31 -47 -63 -112 -137 -230 -345 -306 -538 -119 -303 -175 -710 -193
-1411 -6 -245 -8 -263 -26 -269 -30 -9 -230 15 -423 52 -211 41 -287 46 -310
23 -15 -15 -13 -19 27 -53 99 -86 271 -182 386 -216 87 -26 195 -25 254 4 142
69 244 284 307 647 34 198 49 403 71 982 l9 247 34 79 c93 215 291 481 359
481 31 0 22 -50 -47 -254 -120 -359 -169 -684 -181 -1221 -10 -382 11 -621
101 -1155 60 -363 88 -566 81 -592 -3 -13 -26 -54 -51 -92 -25 -38 -45 -79
-45 -92 0 -44 -155 -103 -329 -124 -138 -18 -382 -13 -486 9 -142 29 -182 53
-232 136 -73 121 -201 384 -257 530 -29 77 -142 338 -251 580 -370 827 -498
1135 -611 1470 -185 546 -293 1012 -351 1510 -22 192 -25 772 -5 940 56 459
193 887 367 1151 135 203 314 340 509 391 121 31 302 36 451 12z m3172 -1344
c49 -22 153 -108 153 -125 0 -4 -27 1 -61 11 -111 35 -146 24 -230 -70 -78
-86 -151 -208 -377 -631 l-200 -375 -31 -140 c-75 -343 -105 -666 -105 -1105
0 -428 23 -736 109 -1465 193 -1620 170 -1353 167 -1989 -3 -577 3 -694 39
-803 44 -133 152 -254 314 -350 48 -29 91 -53 95 -55 5 -2 -7 -70 -26 -153
-45 -198 -71 -343 -88 -495 -22 -189 -53 -258 -156 -353 -219 -203 -681 -248
-1362 -133 -145 25 -320 62 -642 136 -98 22 -180 39 -182 38 -9 -10 559 -221
649 -242 255 -60 454 -80 782 -80 455 0 737 63 912 202 113 90 146 169 162
382 22 295 39 427 62 480 71 164 292 221 634 164 232 -39 379 -107 505 -233
90 -91 132 -156 170 -271 68 -203 67 -413 -5 -977 -21 -171 -24 -214 -15 -270
45 -290 220 -503 412 -503 37 0 54 5 71 23 37 36 147 183 252 332 186 267 341
437 446 491 111 56 226 12 329 -125 27 -36 93 -153 146 -260 106 -216 169
-314 257 -402 85 -84 150 -113 257 -117 171 -6 205 41 310 430 l32 117 37 -15
c108 -47 179 -66 248 -68 62 -1 75 2 96 22 32 30 37 59 25 146 -25 183 -130
356 -380 629 -71 76 -128 145 -128 153 0 8 36 85 79 173 l80 158 103 43 c119
49 253 96 318 111 25 6 55 20 68 32 20 18 38 23 112 25 87 4 88 4 246 -59 88
-34 185 -75 216 -90 68 -34 105 -36 181 -10 32 11 57 19 57 17 0 -13 -67 -194
-91 -247 -35 -76 -38 -77 -117 -57 -34 8 -64 27 -107 66 -104 96 -255 152
-415 152 -181 0 -249 -60 -250 -220 0 -108 15 -135 287 -525 118 -169 173
-328 173 -498 0 -126 -21 -214 -79 -331 -41 -82 -53 -96 -116 -144 -66 -50
-191 -120 -199 -111 -4 5 -97 149 -111 173 -11 19 -163 53 -174 39 -102 -123
-161 -189 -210 -232 -95 -82 -218 -154 -327 -191 -96 -33 -104 -34 -259 -34
-105 -1 -176 4 -205 13 -85 25 -144 112 -224 329 -24 67 -57 145 -72 172 -51
94 -142 160 -222 160 -16 0 -51 -28 -111 -88 -83 -83 -89 -92 -128 -192 -22
-58 -57 -154 -78 -215 -49 -145 -123 -301 -166 -349 -42 -48 -78 -64 -166 -72
-81 -7 -319 18 -427 46 -342 87 -465 361 -365 815 11 50 46 182 79 295 132
466 148 625 78 777 -63 135 -224 209 -433 201 -88 -4 -107 -8 -160 -35 -165
-84 -384 -290 -692 -649 -228 -265 -375 -404 -551 -523 -93 -63 -236 -128
-332 -152 -75 -19 -103 -21 -230 -16 -155 6 -274 29 -447 85 -75 24 -125 51
-277 150 -234 152 -420 284 -561 401 -89 72 -150 111 -320 202 -302 161 -861
444 -1065 540 -96 45 -205 102 -242 128 -240 167 -607 526 -1114 1092 -105
117 -205 215 -338 330 -233 201 -446 405 -502 481 -39 53 -46 73 -87 245 -45
185 -96 483 -83 483 2 0 23 -30 47 -67 129 -199 336 -418 589 -623 85 -69 203
-167 262 -218 59 -50 108 -90 108 -88 0 3 -49 69 -109 149 -231 304 -466 647
-633 922 -147 243 -287 509 -275 521 2 3 158 -179 345 -403 l341 -408 747
-745 c796 -794 791 -790 390 -310 -307 367 -611 712 -921 1045 -733 786 -1160
1330 -1445 1839 -306 547 -361 920 -195 1331 65 162 177 349 204 341 9 -3 129
-30 266 -61 357 -80 855 -204 1105 -275 231 -66 540 -166 554 -180 4 -4 19
-77 32 -162 91 -588 276 -1270 530 -1955 81 -220 292 -745 432 -1078 210 -499
225 -535 229 -532 2 2 -50 174 -116 383 -475 1510 -533 1696 -620 1994 -143
489 -255 917 -335 1274 -40 178 -41 183 -24 273 l12 64 102 -308 c106 -322
196 -559 288 -760 61 -132 146 -296 152 -291 2 2 -23 74 -55 159 -187 495
-301 933 -332 1269 -10 118 -3 410 11 410 13 0 34 -62 33 -99 -2 -38 57 -250
162 -591 244 -789 520 -1505 840 -2180 154 -325 373 -738 458 -865 126 -187
318 -373 507 -489 86 -53 102 -45 54 27 -63 97 -250 312 -315 363 -30 25 -36
33 -23 38 25 10 113 7 260 -8 527 -56 690 -42 812 68 77 70 108 202 83 359
-29 185 -89 831 -111 1197 -13 214 -13 699 0 871 33 435 122 786 258 1013 42
72 174 226 192 226 4 0 -6 -60 -21 -132 -109 -509 -156 -874 -145 -1128 20
-450 83 -845 346 -2165 226 -1137 439 -2264 466 -2463 4 -29 10 -50 14 -45 5
4 15 51 24 103 53 318 43 693 -29 1110 -29 162 -136 618 -227 960 -73 273 -94
362 -157 673 -215 1055 -279 1936 -195 2717 8 79 17 146 19 148 1 2 6 -39 10
-90 30 -417 59 -677 110 -993 33 -204 89 -488 105 -530 26 -70 20 351 -12 730
-13 165 -5 567 16 745 67 559 209 1155 363 1514 184 433 482 668 710 561z
m138 -2000 c-15 -579 -59 -845 -314 -1885 -100 -407 -179 -757 -211 -930 -28
-154 -23 -145 -66 -116 l-37 25 -3 128 c-2 138 -16 248 -69 558 -78 454 -88
665 -42 885 51 244 126 426 333 811 208 386 349 679 385 800 l14 44 8 -45 c5
-25 6 -148 2 -275z m-243 -2945 c110 -297 140 -397 132 -434 -16 -76 -130
-286 -266 -489 -117 -175 -156 -136 -138 141 11 162 37 344 79 547 44 215 104
456 111 448 4 -5 41 -100 82 -213z m623 -520 c278 -40 510 -222 713 -559 34
-57 62 -109 62 -115 0 -9 -26 -9 -97 -3 -139 12 -392 -6 -440 -32 -7 -4 34
-12 92 -19 138 -17 259 -52 375 -109 79 -40 110 -62 185 -138 76 -75 99 -106
138 -185 74 -148 98 -258 104 -475 4 -138 1 -207 -11 -295 -18 -120 -63 -310
-89 -370 l-15 -35 -13 34 c-7 19 -36 82 -64 140 -166 336 -396 556 -650 621
-40 10 -137 24 -216 30 -544 42 -675 55 -699 70 -16 10 10 153 51 275 62 190
199 362 364 458 44 26 75 47 70 47 -6 0 -53 -12 -105 -26 -111 -30 -233 -85
-316 -142 -72 -49 -177 -157 -229 -235 -21 -31 -40 -56 -42 -53 -10 9 43 183
94 311 168 420 322 689 444 776 49 35 169 46 294 29z m2472 -2595 c74 -22 124
-63 160 -131 17 -32 34 -72 38 -89 16 -69 22 -196 14 -294 -9 -101 -57 -421
-65 -430 -10 -11 -79 70 -119 139 -95 162 -221 277 -400 366 -60 30 -117 54
-125 54 -9 0 -24 6 -34 13 -16 12 -12 20 46 101 173 244 313 322 485 271z
m-1378 -587 c54 -46 123 -102 153 -124 138 -104 143 -167 31 -336 -84 -128
-162 -163 -216 -98 -64 75 -102 266 -93 460 5 117 13 180 22 180 3 0 49 -37
103 -82z"/>
<path d="M4339 10661 c-79 -50 -158 -189 -159 -280 0 -60 -9 -50 213 -256 64
-60 77 -78 91 -125 33 -112 90 -185 167 -212 17 -6 56 -26 87 -44 31 -19 62
-34 69 -34 7 0 13 -11 13 -26 0 -37 59 -94 97 -94 41 0 67 -22 122 -103 27
-40 57 -80 68 -89 47 -43 136 -60 188 -36 21 9 32 8 61 -5 70 -34 114 -14 114
52 0 21 -10 57 -22 80 -33 59 -146 181 -251 267 -49 41 -103 91 -119 112 -67
83 -148 259 -148 320 0 15 -18 67 -41 117 -23 49 -49 109 -59 131 -39 88 -134
160 -294 223 -97 39 -139 39 -197 2z"/>
<path d="M3518 10543 c-37 -6 -73 -52 -93 -120 -19 -65 -12 -111 31 -195 32
-63 28 -107 -22 -256 -19 -57 -39 -136 -44 -175 -10 -86 -27 -135 -69 -202
-39 -62 -41 -119 -5 -236 23 -75 25 -101 26 -239 l0 -155 31 -32 c18 -19 41
-33 54 -33 36 0 137 55 166 90 64 76 88 272 51 420 -24 99 -22 119 17 153 19
16 83 61 144 101 98 63 111 76 121 111 17 54 16 136 -1 215 -12 58 -12 71 2
114 14 41 14 56 4 95 -13 49 -49 94 -93 117 -15 8 -50 48 -78 89 -58 86 -98
120 -160 134 -25 6 -47 10 -50 9 -3 0 -17 -3 -32 -5z"/>
<path d="M3856 4014 c-3 -9 -6 -23 -6 -31 0 -13 3 -13 15 -3 16 13 21 50 6 50
-5 0 -12 -7 -15 -16z"/>
<path d="M4777 2287 c-3 -8 -1 -20 4 -28 6 -10 9 -7 9 14 0 29 -5 35 -13 14z"/>
<path d="M4833 2243 c-25 -10 -12 -23 22 -23 19 0 35 5 35 10 0 6 -4 10 -9 10
-5 0 -15 2 -23 4 -7 3 -19 2 -25 -1z"/>
</g>
</svg>
